<svg xmlns="http://www.w3.org/2000/svg" xmlns:xlink="http://www.w3.org/1999/xlink" version="1.1" width="40" height="40" viewBox="0 0 256 256" xml:space="preserve">

<defs>
</defs>
<g style="stroke: none; stroke-width: 0; stroke-dasharray: none; stroke-linecap: butt; stroke-linejoin: miter; stroke-miterlimit: 10; fill-rule: nonzero; opacity: 1;" transform="translate(1.4065934065934016 1.4065934065934016) scale(2.81 2.81)" >
	<path d="M 68.385 83.544 h -46.77 c -0.552 0 -1 -0.447 -1 -1 c 0 -18.394 7.854 -25.128 14.783 -31.069 l 1.163 -1.001 c 1.659 -1.438 2.572 -3.351 2.572 -5.386 c 0 -2.036 -0.914 -3.949 -2.572 -5.386 l -1.165 -1.002 c -6.928 -5.941 -14.781 -12.676 -14.781 -31.068 c 0 -0.552 0.448 -1 1 -1 h 46.77 c 0.553 0 1 0.448 1 1 c 0 18.393 -7.854 25.127 -14.782 31.068 l -1.164 1.002 c -1.659 1.437 -2.572 3.35 -2.572 5.386 c 0 2.036 0.913 3.949 2.572 5.386 l 1.162 1 c 6.93 5.941 14.784 12.676 14.784 31.07 C 69.385 83.097 68.938 83.544 68.385 83.544 z M 22.624 81.544 h 44.752 c -0.279 -16.723 -7.602 -23 -14.077 -28.552 l -1.171 -1.007 c -2.104 -1.823 -3.262 -4.273 -3.262 -6.898 c 0 -2.625 1.158 -5.074 3.262 -6.897 l 1.173 -1.009 c 6.475 -5.552 13.796 -11.829 14.075 -28.55 H 22.624 c 0.28 16.721 7.601 22.998 14.075 28.549 l 1.173 1.009 c 2.104 1.823 3.263 4.272 3.263 6.897 c 0 2.625 -1.159 5.075 -3.263 6.898 L 36.7 52.992 C 30.226 58.544 22.904 64.821 22.624 81.544 z" style="stroke: none; stroke-width: 1; stroke-dasharray: none; stroke-linecap: butt; stroke-linejoin: miter; stroke-miterlimit: 10; fill: rgb(0,0,0); fill-rule: nonzero; opacity: 1;" transform=" matrix(1 0 0 1 0 0) " stroke-linecap="round" />
	<path d="M 72.263 90 H 17.738 c -0.552 0 -1 -0.447 -1 -1 v -6.456 c 0 -0.553 0.448 -1 1 -1 h 54.525 c 0.553 0 1 0.447 1 1 V 89 C 73.263 89.553 72.815 90 72.263 90 z M 18.738 88 h 52.525 v -4.456 H 18.738 V 88 z" style="stroke: none; stroke-width: 1; stroke-dasharray: none; stroke-linecap: butt; stroke-linejoin: miter; stroke-miterlimit: 10; fill: rgb(0,0,0); fill-rule: nonzero; opacity: 1;" transform=" matrix(1 0 0 1 0 0) " stroke-linecap="round" />
	<path d="M 72.263 8.457 H 17.738 c -0.552 0 -1 -0.448 -1 -1 V 1 c 0 -0.552 0.448 -1 1 -1 h 54.525 c 0.553 0 1 0.448 1 1 v 6.457 C 73.263 8.009 72.815 8.457 72.263 8.457 z M 18.738 6.457 h 52.525 V 2 H 18.738 V 6.457 z" style="stroke: none; stroke-width: 1; stroke-dasharray: none; stroke-linecap: butt; stroke-linejoin: miter; stroke-miterlimit: 10; fill: rgb(0,0,0); fill-rule: nonzero; opacity: 1;" transform=" matrix(1 0 0 1 0 0) " stroke-linecap="round" />
</g>
</svg>